<?xml version="1.0" encoding="iso-8859-1"?>
<!-- Generator: Adobe Illustrator 19.0.0, SVG Export Plug-In . SVG Version: 6.00 Build 0)  -->
<svg version="1.1" id="Layer_1" xmlns="http://www.w3.org/2000/svg" xmlns:xlink="http://www.w3.org/1999/xlink" x="0px" y="0px"
	 viewBox="0 0 512.001 512.001" style="enable-background:new 0 0 512.001 512.001;" xml:space="preserve" height="100px" width="100px">
<polygon style="fill:#EBEBEC;" points="57.719,459.336 29.135,69.291 303.293,69.291 274.711,459.336 "/>
<polygon style="fill:#CACACD;" points="166.214,459.336 166.214,69.291 303.293,69.291 274.711,459.336 "/>
<polygon style="fill:#64DDE0;" points="131.435,218.961 81.832,38.03 7.942,58.264 0,29.263 102.882,1.091 160.433,211.011 "/>
<polygon style="fill:#F7BA35;" points="274.711,459.336 57.719,459.336 38.711,199.952 293.716,199.952 "/>
<polygon style="fill:#FD9702;" points="274.711,459.336 166.214,459.336 166.213,199.952 293.716,199.952 "/>
<path style="fill:#FBDA35;" d="M180.555,335.165v10.022c0,91.38,74.343,165.723,165.723,165.723s165.723-74.343,165.723-165.723
	v-10.022H180.555z"/>
<g>
	<path style="fill:#F7BA35;" d="M346.277,510.91c91.38,0,165.723-74.343,165.723-165.723v-10.022H346.277
		C346.277,335.165,346.277,459.305,346.277,510.91z"/>
	<path style="fill:#F7BA35;" d="M256.157,421.135c-15.306-18.134-25.249-40.93-27.363-65.924h93.287L256.157,421.135z"/>
	<path style="fill:#F7BA35;" d="M336.255,369.384v93.287c-24.995-2.114-47.79-12.057-65.924-27.362L336.255,369.384z"/>
</g>
<g>
	<path style="fill:#FD9702;" d="M356.3,369.384l65.925,65.924c-18.134,15.306-40.93,25.249-65.925,27.363V369.384z"/>
	<path style="fill:#FD9702;" d="M436.398,421.135l-65.924-65.924h93.287C461.648,380.205,451.705,403,436.398,421.135z"/>
</g>
<g>
</g>
<g>
</g>
<g>
</g>
<g>
</g>
<g>
</g>
<g>
</g>
<g>
</g>
<g>
</g>
<g>
</g>
<g>
</g>
<g>
</g>
<g>
</g>
<g>
</g>
<g>
</g>
<g>
</g>
</svg>
