<svg xmlns="http://www.w3.org/2000/svg" width="144" height="32" viewBox="0 0 144 32" class="logo"><g id="surface1"><path d="M 70.214844 23.167969 L 74.167969 23.167969 C 73.65625 25.34375 72.507812 27.007812 70.851562 28.160156 C 69.195312 29.3125 67.15625 29.953125 64.734375 29.953125 C 61.804688 29.953125 59.511719 28.929688 57.855469 27.007812 C 56.199219 25.089844 55.304688 22.398438 55.304688 18.945312 C 55.304688 15.617188 56.070312 13.054688 57.726562 11.136719 C 59.382812 9.214844 61.679688 8.191406 64.609375 8.191406 C 67.667969 8.191406 70.089844 9.089844 71.871094 11.007812 C 72.765625 12.160156 73.527344 13.441406 73.910156 14.976562 L 68.433594 14.976562 C 68.175781 14.464844 67.921875 14.078125 67.667969 13.824219 C 67.03125 13.054688 66.011719 12.671875 64.734375 12.671875 C 63.589844 12.671875 62.699219 13.054688 61.933594 13.824219 C 61.039062 14.847656 60.53125 16.640625 60.53125 18.945312 C 60.53125 21.375 61.039062 23.039062 61.933594 24.0625 C 62.570312 24.960938 63.589844 25.34375 64.992188 25.34375 C 65.882812 25.34375 66.648438 25.214844 67.285156 24.832031 C 67.414062 24.832031 67.539062 24.703125 67.667969 24.574219 C 67.792969 24.449219 67.921875 24.320312 68.050781 24.191406 C 68.175781 24.0625 68.304688 23.808594 68.6875 23.550781 C 69.070312 23.296875 69.578125 23.167969 70.214844 23.167969 Z M 30.585938 29.566406 L 30.585938 7.425781 L 38.484375 7.425781 L 38.484375 5.503906 C 38.484375 4.734375 38.230469 4.097656 37.71875 3.457031 C 37.210938 2.945312 36.445312 2.6875 35.679688 2.6875 L 17.203125 2.6875 L 17.203125 7.425781 L 25.105469 7.425781 L 25.105469 29.566406 Z M 89.074219 14.59375 C 88.3125 13.441406 87.292969 12.929688 85.890625 12.929688 C 84.488281 12.929688 83.339844 13.441406 82.578125 14.464844 C 81.8125 15.488281 81.429688 16.894531 81.429688 18.816406 L 81.429688 29.566406 L 76.078125 29.566406 L 76.078125 2.6875 L 78.753906 2.6875 C 79.519531 2.6875 80.15625 2.945312 80.664062 3.457031 C 81.175781 3.96875 81.429688 4.609375 81.429688 5.375 L 81.429688 11.519531 C 82.320312 9.984375 83.722656 8.960938 85.378906 8.574219 C 87.039062 8.191406 88.695312 8.320312 90.222656 8.832031 C 91.625 9.472656 92.898438 10.496094 93.917969 11.777344 C 94.9375 13.183594 95.449219 14.976562 95.449219 17.40625 L 95.449219 29.566406 L 90.222656 29.566406 L 90.222656 18.816406 C 90.222656 18.046875 90.09375 17.28125 89.96875 16.640625 C 89.839844 16 89.585938 15.230469 89.074219 14.59375 Z M 49.316406 23.167969 L 53.265625 23.167969 C 52.757812 25.34375 51.609375 27.007812 49.953125 28.160156 C 48.296875 29.3125 46.257812 29.953125 43.835938 29.953125 C 40.90625 29.953125 38.613281 28.929688 36.957031 27.007812 C 35.300781 25.089844 34.40625 22.398438 34.40625 18.945312 C 34.40625 15.617188 35.171875 13.054688 36.828125 11.136719 C 38.484375 9.214844 40.777344 8.191406 43.710938 8.191406 C 46.769531 8.191406 49.1875 9.089844 50.972656 11.007812 C 52.628906 12.929688 53.523438 15.617188 53.523438 19.070312 C 53.523438 19.328125 53.523438 19.457031 53.523438 19.585938 C 53.523438 19.710938 53.523438 19.839844 53.523438 19.839844 C 53.523438 20.097656 53.523438 20.222656 53.394531 20.351562 L 39.886719 20.351562 C 39.886719 22.015625 40.269531 23.167969 41.035156 23.9375 C 41.671875 24.832031 42.691406 25.214844 44.09375 25.214844 C 44.984375 25.214844 45.75 25.089844 46.386719 24.703125 C 46.511719 24.703125 46.640625 24.574219 46.769531 24.449219 C 46.894531 24.320312 47.023438 24.191406 47.152344 24.0625 C 47.152344 23.9375 47.40625 23.679688 47.789062 23.425781 C 48.167969 23.296875 48.679688 23.167969 49.316406 23.167969 Z M 40.015625 17.023438 L 47.914062 17.023438 C 47.789062 15.617188 47.40625 14.59375 46.769531 13.953125 C 46.132812 13.183594 45.113281 12.800781 43.835938 12.800781 C 42.691406 12.800781 41.796875 13.183594 41.035156 13.953125 C 40.394531 14.59375 40.015625 15.742188 40.015625 17.023438 Z M 40.015625 17.023438"></path><path d="M 122.847656 29.566406 L 122.847656 19.457031 C 122.847656 17.40625 123.101562 15.742188 123.738281 14.335938 C 124.375 12.929688 125.140625 11.902344 126.160156 11.007812 C 127.179688 10.238281 128.324219 9.601562 129.601562 9.34375 C 130.875 8.960938 132.277344 8.832031 133.679688 8.832031 C 133.804688 8.832031 133.933594 8.832031 134.058594 8.832031 C 134.1875 8.832031 134.316406 8.832031 134.441406 8.832031 L 134.441406 14.335938 L 132.660156 14.335938 C 131.128906 14.335938 129.980469 14.71875 129.34375 15.488281 C 128.582031 16.257812 128.199219 17.40625 128.199219 18.945312 L 128.199219 29.695312 L 122.847656 29.695312 Z M 10.703125 2.6875 L 14.144531 2.6875 L 14.144531 7.425781 L 8.539062 7.425781 L 8.539062 4.734375 C 8.539062 3.328125 9.300781 2.6875 10.703125 2.6875 Z M 0 23.9375 L 5.734375 23.9375 L 5.734375 29.695312 L 0 29.695312 Z M 2.167969 9.726562 L 5.734375 9.726562 L 5.734375 15.488281 L 0 15.488281 L 0 11.902344 C 0 10.496094 0.636719 9.726562 2.167969 9.726562 Z M 8.539062 9.726562 L 14.144531 9.726562 L 14.144531 29.566406 L 8.539062 29.566406 Z M 144.382812 29.566406 C 142.726562 29.695312 140.8125 29.695312 138.773438 29.441406 C 136.734375 29.3125 135.71875 28.03125 135.71875 25.601562 L 135.71875 2.558594 L 138.519531 2.558594 C 139.15625 2.558594 139.792969 2.816406 140.304688 3.328125 C 140.8125 3.839844 141.070312 4.480469 141.070312 5.246094 L 141.070312 8.832031 L 144.253906 8.832031 L 144.253906 11.648438 C 144.253906 12.414062 144 13.054688 143.492188 13.566406 C 142.980469 14.078125 142.34375 14.335938 141.578125 14.335938 L 141.070312 14.335938 L 141.070312 23.679688 C 141.070312 24.574219 141.578125 24.960938 142.597656 24.960938 C 143.871094 24.960938 144.253906 25.472656 144.253906 26.625 L 144.253906 29.566406 Z M 108.0625 2.6875 L 112.394531 2.6875 L 122.082031 29.566406 L 116.21875 29.566406 L 114.433594 24.0625 L 103.984375 24.0625 L 102.328125 29.566406 L 96.46875 29.566406 L 105.386719 4.480469 C 105.898438 3.199219 106.789062 2.6875 108.0625 2.6875 Z M 109.339844 8.0625 L 105.640625 19.457031 L 113.160156 19.457031 Z M 109.339844 8.0625" fill="#ed1c24"></path></g></svg>